PathFileType  4	(X/Y/Z) C:\Users\antoi\Documents\MyRepositories\mobilecap\ResultsAnalysis
DataRate	CameraRate	NumFrames	NumMarkers	Units	OrigDataRate	OrigDataStartFrame	OrigNumFrames
100.0	100.0	5	51	mm	100.0	36	141
Frame#	Time	r_knee			r_shank_antsup			r_ankle			r_calc			r_5meta			r_toe			L_knee			L_shank_antsup			L_ankle			L_calc			L_5meta			L_toe			r_sh2			r_sh3			r_sh4			L_sh2			L_sh3			r_thigh1			r_thigh2			r_thigh3			r_thigh4			r_thigh5			L_thigh1			L_thigh2			L_thigh3			L_thigh4			r.ASIS			r.PSIS			L.ASIS			L.PSIS			C7			R_Shoulder			L_Shoulder			R_Sternum			L_Sternum			R_humerus			R_elbow_med			R_elbow_lat			R_forearm			R_wrist_radius			R_wrist_ulna			L_humerus			L_elbow_med			L_elbow_lat			L_forearm			L_wrist_radius			L_wrist_ulna			R_HJC			L_HJC			R_HJC_reg			L_HJC_reg			
		X1	Y1	Z1	X2	Y2	Z2	X3	Y3	Z3	X4	Y4	Z4	X5	Y5	Z5	X6	Y6	Z6	X7	Y7	Z7	X8	Y8	Z8	X9	Y9	Z9	X10	Y10	Z10	X11	Y11	Z11	X12	Y12	Z12	X13	Y13	Z13	X14	Y14	Z14	X15	Y15	Z15	X16	Y16	Z16	X17	Y17	Z17	X18	Y18	Z18	X19	Y19	Z19	X20	Y20	Z20	X21	Y21	Z21	X22	Y22	Z22	X23	Y23	Z23	X24	Y24	Z24	X25	Y25	Z25	X26	Y26	Z26	X27	Y27	Z27	X28	Y28	Z28	X29	Y29	Z29	X30	Y30	Z30	X31	Y31	Z31	X32	Y32	Z32	X33	Y33	Z33	X34	Y34	Z34	X35	Y35	Z35	X36	Y36	Z36	X37	Y37	Z37	X38	Y38	Z38	X39	Y39	Z39	X40	Y40	Z40	X41	Y41	Z41	X42	Y42	Z42	X43	Y43	Z43	X44	Y44	Z44	X45	Y45	Z45	X46	Y46	Z46	X47	Y47	Z47	X48	Y48	Z48	X49	Y49	Z49	X50	Y50	Z50	X51	Y51	Z51	

36	0.35000000	165.44009	493.44568	-92.07438	194.00355	395.80427	-112.25556	80.42521	94.93472	-129.92147	14.38703	60.20762	-173.47226	197.88098	46.60907	-91.24004	229.86910	72.05520	-150.05694	302.55176	522.95130	-370.33852	316.93256	428.14981	-359.24468	111.13689	160.48995	-343.57726	31.46094	150.65856	-286.40313	177.02261	60.42857	-383.26613	237.18770	71.26353	-335.34209	175.69290	284.52459	-122.22290	137.63787	398.97329	-61.11728	112.88534	286.80020	-65.48207	248.27313	477.24099	-392.14128	186.52432	372.34387	-396.08115	217.57641	773.25259	-56.33575	224.15237	663.94885	-80.72575	177.14419	630.94782	-43.04792	110.21160	757.82033	-20.58577	121.38665	645.57885	-50.18817	272.69305	776.38496	-381.66761	341.04465	654.92050	-364.50671	180.86750	721.59804	-410.93291	244.41286	606.79001	-384.66711	232.66757	967.74732	-90.74544	21.53335	1001.96592	-168.03610	222.99705	964.21979	-341.83500	23.35890	997.14927	-263.87860	70.06142	1457.64664	-213.42977	149.08671	1422.63245	-50.98112	146.58555	1427.40370	-370.26410	195.68445	1384.48118	-193.07104	193.05291	1385.48046	-238.54025	196.54651	1293.40524	-6.08200	111.41668	1091.83372	-26.65576	129.40833	1104.16697	36.10343	189.64880	1042.27953	53.33194	249.26746	882.69939	26.17520	214.72937	880.48056	64.93022	175.39546	1288.17889	-431.15642	110.70153	1090.21019	-380.14979	122.06375	1100.71311	-459.01211	173.01203	1045.56143	-475.68188	229.81414	875.88026	-463.51538	192.27223	878.24797	-497.84023	146.19934	881.25372	-112.56974	143.67695	878.29840	-302.09351	152.01050	896.14528	-123.86606	155.16452	887.82112	-289.48407	
37	0.36000000	169.29443	493.04388	-91.58653	196.79230	395.23103	-111.91870	80.47603	95.19637	-130.07435	14.46744	60.52863	-173.65816	197.93279	46.60982	-91.24480	230.18715	72.02265	-150.11112	319.03842	526.07228	-370.09616	338.66380	432.07488	-359.17427	150.33449	151.75169	-346.03443	71.68936	136.28452	-288.89367	222.57547	56.35719	-386.24603	282.07777	70.54047	-338.21457	177.51565	284.09224	-122.11996	140.46153	398.65020	-60.65789	114.85812	286.72803	-65.20788	267.24412	476.66183	-392.86528	212.69486	368.00061	-397.52651	226.27961	772.24459	-56.17923	230.99597	662.87978	-80.63994	183.61582	630.59233	-42.84094	118.78208	758.35551	-20.15342	128.07128	645.98243	-49.66514	285.42379	778.78900	-381.88623	355.21066	658.19998	-364.25830	194.23476	722.86539	-411.23676	259.09836	608.84815	-384.64173	243.63451	967.39671	-90.58090	32.71088	1002.03439	-167.95825	234.32409	965.30871	-341.66065	34.50902	997.23394	-263.61981	82.78271	1458.07169	-215.08197	162.92542	1424.80307	-52.91905	158.18301	1426.05577	-372.01476	208.41667	1384.94748	-194.78509	205.26413	1385.35247	-240.19318	211.45641	1296.13165	-7.53841	126.71523	1094.01997	-25.21971	146.39084	1106.62410	36.92693	207.26254	1045.34396	53.17163	267.54881	886.18980	25.38761	234.03474	883.87053	64.76629	185.81651	1286.46982	-432.30579	121.27892	1088.88204	-379.95914	131.66191	1099.03431	-458.98119	182.14778	1043.73121	-476.24241	238.78695	873.97507	-464.56664	200.54780	876.25726	-498.06145	157.38850	880.97613	-112.90137	155.06002	878.98836	-302.43998	163.04173	896.67140	-123.70637	166.15358	888.36053	-289.29946	
38	0.37000000	173.34870	492.56858	-91.21691	199.75964	394.60044	-111.69601	80.57383	95.46406	-130.26845	14.52577	60.88654	-173.86622	198.00183	46.61107	-91.25372	230.53200	71.97122	-150.16813	334.81893	528.32382	-369.90265	359.64920	435.60584	-359.03180	189.98009	143.67034	-348.58077	112.60132	122.69626	-291.59168	268.19412	53.26806	-389.26115	326.76815	70.63262	-341.02894	179.44132	283.62268	-122.11421	143.51645	398.31114	-60.28088	117.01728	286.65460	-64.99413	285.71717	475.39210	-393.59816	238.80992	363.43402	-399.03537	234.96836	771.13010	-55.95840	237.93725	661.72749	-80.58509	190.12637	630.11879	-42.72045	127.41146	758.69462	-19.77010	134.83162	646.24425	-49.22883	297.98029	780.46778	-381.92379	368.79119	660.54817	-363.95306	207.34394	723.73713	-411.59408	273.14057	610.29733	-384.80204	254.58540	966.78788	-90.38711	43.90531	1001.75448	-167.85712	245.80955	966.04489	-341.48399	45.68999	997.01392	-263.31121	95.52661	1458.17172	-216.80027	176.74177	1426.59652	-54.90878	169.85052	1424.24482	-373.81717	221.10567	1385.00960	-196.50962	217.49048	1384.85707	-241.86476	226.30322	1298.45826	-9.07903	142.04384	1095.81179	-23.94968	163.24593	1108.71314	37.61108	224.78857	1048.05614	52.94633	285.80266	889.32248	24.62863	253.26904	886.95660	64.50796	196.31535	1284.27977	-433.48692	131.89087	1087.07866	-379.86045	141.40063	1096.86337	-458.95525	191.35787	1041.46365	-476.84752	247.86006	871.64704	-465.59855	208.96963	873.82444	-498.29992	168.61909	880.40901	-113.18394	166.52535	879.35041	-302.73225	174.15944	896.80323	-123.56032	177.25415	888.57904	-289.15242	
39	0.38000000	177.57673	492.02330	-90.93133	202.84455	393.89476	-111.47819	80.71795	95.74066	-130.50021	14.57777	61.25607	-174.09339	198.08393	46.61006	-91.26185	230.86184	71.88164	-150.21877	349.93258	529.72101	-369.78295	379.85017	438.77970	-358.91637	229.89295	136.37228	-351.21619	153.95250	110.11777	-294.50185	313.69857	51.20605	-392.20954	371.09028	71.64989	-343.70045	181.41995	283.10907	-122.09937	146.67751	397.97131	-59.96133	119.20855	286.59165	-64.82893	303.68183	473.55233	-394.34393	264.75152	358.81463	-400.60831	243.67774	769.90835	-55.70154	245.02496	660.48965	-80.55986	196.72671	629.53233	-42.66713	136.09581	758.85399	-19.38096	141.69362	646.38138	-48.87487	310.40981	781.42458	-381.75454	381.88064	661.97229	-363.56862	220.27859	724.18720	-412.03556	286.64784	611.11935	-385.17733	265.49022	965.92907	-90.12605	55.13545	1001.11476	-167.74469	257.46127	966.42337	-341.26941	56.92554	996.48682	-262.97608	108.27142	1457.95667	-218.58631	190.52557	1428.01002	-56.95040	181.59774	1421.96975	-375.67141	233.73045	1384.65123	-198.23947	229.73968	1383.98999	-243.55779	241.09194	1300.37895	-10.72035	157.43177	1097.19240	-22.85027	179.97195	1110.44326	38.16162	242.21418	1050.40810	52.64917	304.03526	892.09206	23.87426	272.41860	889.71741	64.17301	206.90691	1281.60253	-434.68997	142.52109	1084.80043	-379.86233	151.27478	1094.20638	-458.94448	200.65341	1038.75679	-477.49435	257.03537	868.90240	-466.59410	217.54897	870.95387	-498.55487	179.87694	879.55450	-113.39797	178.09678	879.37759	-302.95206	185.36204	896.52504	-123.40151	188.47307	888.47811	-289.01731	
40	0.39000000	181.95362	491.41529	-90.68546	205.99701	393.10215	-111.17292	80.90271	96.03438	-130.76056	14.64743	61.61577	-174.33880	198.17115	46.60256	-91.26413	231.15540	71.74683	-150.25646	364.40280	530.31661	-369.76818	399.21258	441.62873	-358.92978	269.87028	129.96633	-353.92962	195.50899	98.72444	-297.60018	358.88959	50.21947	-395.00992	414.83873	73.70377	-346.17869	183.41673	282.54525	-121.98670	149.83741	397.63932	-59.67265	121.30903	286.54694	-64.69891	321.10439	471.25816	-395.12897	290.35792	354.27625	-402.24780	252.42790	768.57206	-55.43243	252.27614	659.15786	-80.53926	203.45826	628.83530	-42.64197	144.83767	758.84790	-18.94461	148.67346	646.40730	-48.58654	322.75517	781.68652	-381.36208	394.57547	662.51193	-363.06681	233.10716	724.20662	-412.58734	299.73578	611.31952	-385.76066	276.35258	964.83899	-89.76950	66.41738	1000.11446	-167.65009	269.27608	966.44070	-340.99624	68.24095	995.64522	-262.65083	121.00377	1457.43503	-220.45473	204.26592	1429.04500	-59.05007	193.44278	1419.24167	-377.58014	246.29275	1383.87608	-199.97854	242.01672	1382.75091	-245.27713	255.82335	1301.89578	-12.46982	172.89299	1098.15951	-21.92579	196.59032	1111.83119	38.57670	259.51968	1052.39958	52.27087	322.23141	894.50011	23.10113	291.45505	892.13435	63.77917	217.61553	1278.44636	-435.90259	153.15607	1082.05592	-379.97123	161.25795	1091.09181	-458.97836	210.04647	1035.61814	-478.17802	266.31609	865.75349	-467.53875	226.29591	867.66164	-498.82651	191.16296	878.42612	-113.53263	189.80041	879.06230	-303.08947	196.65004	895.84292	-123.20563	199.82719	888.05311	-288.87347	
